<?xml version="1.0" encoding="UTF-8"?>
<svg width="21px" height="20px" viewBox="0 0 21 20" version="1.1" xmlns="http://www.w3.org/2000/svg" xmlns:xlink="http://www.w3.org/1999/xlink">
    <!-- Generator: sketchtool 56.2 (101010) - https://sketch.com -->
    <defs>
        <path d="M15.138215,13.2240015 L20.131728,18.2175144 C20.5222523,18.6080387 20.5222523,19.2412037 20.131728,19.631728 C19.7412037,20.0222523 19.1080387,20.0222523 18.7175144,19.631728 L13.7240015,14.638215 C10.5855719,17.0807128 6.04589054,16.859599 3.16116524,13.9748737 C0.0369709013,10.8506794 0.0369709013,5.78535957 3.16116524,2.66116524 C6.28535957,-0.463029099 11.3506794,-0.463029099 14.4748737,2.66116524 C17.359599,5.54589054 17.5807128,10.0855719 15.138215,13.2240015 Z M13.0606602,12.5606602 C15.4038059,10.2175144 15.4038059,6.41852455 13.0606602,4.0753788 C10.7175144,1.73223305 6.91852455,1.73223305 4.5753788,4.0753788 C2.23223305,6.41852455 2.23223305,10.2175144 4.5753788,12.5606602 C6.91852455,14.9038059 10.7175144,14.9038059 13.0606602,12.5606602 Z" id="path-1"></path>
    </defs>
    <g id="-Web" stroke="none" stroke-width="1" fill="none" fill-rule="evenodd">
        <g id="-Glossary" transform="translate(-466.000000, -366.000000)">
            <g id="Group-8" transform="translate(449.000000, 227.000000)">
                <g id="Group-5" transform="translate(0.000000, 126.000000)">
                    <g id="field-/-search-/-hint">
                        <g id="input-/-hint">
                            <g id="icn-/-24-/-search" transform="translate(16.000000, 12.000000)">
                                <g id="Bg-/-light-/-gray-1" transform="translate(1.000000, 1.000000)">
                                    <mask id="mask-2" fill="white">
                                        <use xlink:href="#path-1"></use>
                                    </mask>
                                    <use id="Mask" fill="#B8ADA7" xlink:href="#path-1"></use>
                                </g>
                            </g>
                        </g>
                    </g>
                </g>
            </g>
        </g>
    </g>
</svg>